<svg width="40" height="1134" viewBox="0 0 40 1134" fill="none" xmlns="http://www.w3.org/2000/svg">
    <path fill-rule="evenodd" clip-rule="evenodd" d="M38.6718 0.00133619C37.9663 0.00133619 37.3944 0.573224 37.3944 1.27873V6.13343L25.3326 10.7725C25.3045 10.7832 25.2791 10.7939 25.2537 10.8072C24.7246 10.9636 24.3384 11.4526 24.3384 12.0325V38.9499C24.3384 39.5939 24.8168 40.127 25.4381 40.2139L30.0467 41.987V54.2065L25.4381 55.9797C24.8168 56.0652 24.3384 56.5983 24.3384 57.2437V84.161C24.3384 84.7409 24.7246 85.23 25.2537 85.3863C25.2791 85.3983 25.3058 85.4104 25.3326 85.4211L37.3944 90.0601V96.8802L25.3326 101.519C25.3045 101.53 25.2791 101.541 25.2537 101.554C24.7246 101.71 24.3384 102.199 24.3384 102.779V129.697C24.3384 130.341 24.8168 130.874 25.4381 130.961L30.0467 132.734V144.953L25.4381 146.726C24.8168 146.812 24.3384 147.345 24.3384 147.99V174.908C24.3384 175.488 24.7246 175.977 25.2537 176.133C25.2662 176.139 25.279 176.145 25.292 176.151C25.3054 176.157 25.319 176.162 25.3326 176.168L37.3944 180.807V187.722C37.3944 188.427 37.9663 188.999 38.6718 188.999C39.3773 188.999 39.9492 188.427 39.9492 187.722V161.396C39.9893 161.255 39.9866 161.108 39.9492 160.973V116.716C39.9866 116.581 39.9893 116.436 39.9492 116.293V70.6512C39.9893 70.5096 39.9866 70.3626 39.9492 70.2276V25.9714C39.9866 25.8364 39.9893 25.6908 39.9492 25.5478V1.27873C39.9492 0.573224 39.3773 0.00133619 38.6718 0.00133619ZM2.58258 70.6004L8.91349 68.1659L8.91332 68.1647C9.49326 68.0445 9.93018 67.53 9.93018 66.914V62.6314L13.0836 63.8447V77.5953L2.58258 81.6347V70.6004ZM0.0290717 70.2263C-0.00834329 70.3612 -0.0110148 70.5069 0.0290717 70.6499V116.294C-0.0110148 116.435 -0.00834329 116.582 0.0290717 116.717V160.974C-0.00834329 161.108 -0.0110148 161.254 0.0290717 161.397V187.723C0.0290717 188.424 0.594342 188.993 1.29419 189C0.594342 189.007 0.0290717 189.576 0.0290717 190.277V214.546C-0.0110148 214.688 -0.00834329 214.835 0.0290717 214.97V259.226C-0.00834329 259.361 -0.0110148 259.507 0.0290717 259.65V305.294C-0.0110148 305.435 -0.00834329 305.582 0.0290717 305.717V349.973C-0.00834329 350.108 -0.0110148 350.254 0.0290717 350.397V376.723C0.0290717 377.428 0.600965 378 1.30647 378C0.600965 378 0.0290717 378.572 0.0290717 379.277V403.546C-0.0110148 403.688 -0.00834329 403.835 0.0290717 403.97V448.226C-0.00834329 448.361 -0.0110148 448.507 0.0290717 448.65V494.294C-0.0110148 494.435 -0.00834329 494.582 0.0290717 494.717V538.974C-0.00834329 539.108 -0.0110148 539.254 0.0290717 539.397V565.723C0.0290717 566.424 0.594342 566.994 1.29419 567C0.594342 567.007 0.0290717 567.576 0.0290717 568.277V592.546C-0.0110148 592.688 -0.00834329 592.835 0.0290717 592.97V637.226C-0.00834329 637.361 -0.0110148 637.507 0.0290717 637.65V683.294C-0.0110148 683.435 -0.00834329 683.582 0.0290717 683.717V727.973C-0.00834329 728.108 -0.0110148 728.254 0.0290717 728.397V754.723C0.0290717 755.425 0.596212 755.995 1.29767 756C0.596212 756.005 0.0290717 756.575 0.0290717 757.277V781.546C-0.0110148 781.688 -0.00834329 781.835 0.0290717 781.97V826.226C-0.00834329 826.361 -0.0110148 826.507 0.0290717 826.65V872.294C-0.0110148 872.435 -0.00834329 872.582 0.0290717 872.717V916.973C-0.00834329 917.108 -0.0110148 917.254 0.0290717 917.397V943.723C0.0290717 944.425 0.596212 944.995 1.29767 945C0.596212 945.005 0.0290717 945.575 0.0290717 946.277V970.546C-0.0110148 970.688 -0.00834329 970.835 0.0290717 970.97V1015.23C-0.00834329 1015.36 -0.0110148 1015.51 0.0290717 1015.65V1061.29C-0.0110148 1061.44 -0.00834329 1061.58 0.0290717 1061.72V1105.97C-0.00834329 1106.11 -0.0110148 1106.25 0.0290717 1106.4V1132.72C0.0290717 1133.43 0.600965 1134 1.30647 1134C2.01198 1134 2.58388 1133.43 2.58388 1132.72V1125.81L14.6457 1121.17C14.6738 1121.16 14.6992 1121.15 14.7246 1121.13C15.2537 1120.98 15.6399 1120.49 15.6399 1119.91V1092.99C15.6399 1092.35 15.1615 1091.81 14.5402 1091.73L9.93157 1089.95V1077.73L14.5402 1075.96C15.1615 1075.88 15.6399 1075.34 15.6399 1074.7V1047.78C15.6399 1047.2 15.2537 1046.71 14.7246 1046.55C14.6992 1046.54 14.6725 1046.53 14.6457 1046.52L2.58388 1041.88V1035.06L14.6457 1030.42C14.6738 1030.41 14.6992 1030.4 14.7246 1030.39C15.2537 1030.23 15.6399 1029.74 15.6399 1029.16V1002.24C15.6399 1001.6 15.1615 1001.07 14.5402 1000.98L9.93157 999.207V986.988L14.5402 985.215C15.1615 985.129 15.6399 984.596 15.6399 983.951V957.033C15.6399 956.453 15.2537 955.964 14.7246 955.808C14.6992 955.795 14.6725 955.784 14.6457 955.773L2.58388 951.134V946.277C2.58388 945.575 2.01673 945.005 1.31528 945C2.01673 944.995 2.58388 944.425 2.58388 943.723V936.808L14.6457 932.169C14.6578 932.164 14.6694 932.16 14.6808 932.155C14.6957 932.148 14.7101 932.142 14.7246 932.134C15.2537 931.978 15.6399 931.489 15.6399 930.909V903.991C15.6399 903.347 15.1615 902.814 14.5402 902.727L9.93157 900.954V888.735L14.5402 886.962C15.1615 886.876 15.6399 886.343 15.6399 885.698V858.78C15.6399 858.2 15.2537 857.711 14.7246 857.555C14.6992 857.543 14.6725 857.531 14.6457 857.52L2.58388 852.881V846.061L14.6457 841.422C14.6738 841.411 14.6992 841.401 14.7246 841.387C15.2537 841.231 15.6399 840.742 15.6399 840.162V813.245C15.6399 812.601 15.1615 812.067 14.5402 811.981L9.93157 810.207V797.988L14.5402 796.215C15.1615 796.129 15.6399 795.596 15.6399 794.951V768.033C15.6399 767.453 15.2537 766.964 14.7246 766.808C14.6992 766.795 14.6725 766.784 14.6457 766.773L2.58388 762.134V757.277C2.58388 756.575 2.01673 756.005 1.31528 756C2.01673 755.995 2.58388 755.425 2.58388 754.723V747.808L14.6457 743.169C14.6635 743.162 14.6803 743.155 14.6966 743.148C14.706 743.143 14.7153 743.139 14.7246 743.134C15.2537 742.978 15.6399 742.489 15.6399 741.909V714.991C15.6399 714.347 15.1615 713.814 14.5402 713.727L9.93157 711.954V699.735L14.5402 697.962C15.1615 697.876 15.6399 697.343 15.6399 696.698V669.78C15.6399 669.2 15.2537 668.711 14.7246 668.555C14.6992 668.543 14.6725 668.531 14.6457 668.52L2.58388 663.881V657.061L14.6457 652.422C14.6738 652.411 14.6992 652.401 14.7246 652.387C15.2537 652.231 15.6399 651.742 15.6399 651.162V624.245C15.6399 623.601 15.1615 623.067 14.5402 622.981L9.93157 621.207V608.988L14.5402 607.215C15.1615 607.129 15.6399 606.596 15.6399 605.951V579.033C15.6399 578.453 15.2537 577.964 14.7246 577.808C14.7189 577.805 14.7133 577.802 14.7075 577.8C14.6974 577.795 14.6872 577.79 14.6769 577.786L14.6608 577.779L14.6457 577.773L2.58388 573.134V568.277C2.58388 567.576 2.0186 567.007 1.31875 567C2.0186 566.994 2.58388 566.424 2.58388 565.723V558.808L14.6457 554.169C14.6738 554.158 14.6992 554.147 14.7246 554.134C15.2537 553.978 15.6399 553.489 15.6399 552.909V525.991C15.6399 525.347 15.1615 524.814 14.5402 524.727L9.93157 522.954V510.735L14.5402 508.962C15.1615 508.876 15.6399 508.343 15.6399 507.698V480.78C15.6399 480.2 15.2537 479.711 14.7246 479.555C14.6992 479.543 14.6725 479.531 14.6457 479.52L2.58388 474.881V468.061L14.6457 463.422C14.6738 463.411 14.6992 463.401 14.7246 463.387C15.2537 463.231 15.6399 462.742 15.6399 462.162V435.245C15.6399 434.601 15.1615 434.067 14.5402 433.981L9.93157 432.207V419.988L14.5402 418.215C15.1615 418.129 15.6399 417.596 15.6399 416.951V390.033C15.6399 389.454 15.2537 388.965 14.7246 388.808C14.6992 388.795 14.6725 388.784 14.6457 388.773L2.58388 384.134V379.277C2.58388 378.572 2.01198 378 1.30647 378C2.01198 378 2.58388 377.428 2.58388 376.723V369.808L14.6457 365.169C14.6738 365.158 14.6992 365.147 14.7246 365.134C15.2537 364.978 15.6399 364.489 15.6399 363.909V336.991C15.6399 336.347 15.1615 335.814 14.5402 335.727L9.93157 333.954V321.735L14.5402 319.962C15.1615 319.876 15.6399 319.343 15.6399 318.698V291.78C15.6399 291.2 15.2537 290.711 14.7246 290.555C14.7147 290.55 14.7047 290.546 14.6945 290.541L14.676 290.533C14.666 290.528 14.6558 290.524 14.6457 290.52L2.58388 285.881V279.061L14.6457 274.422C14.6738 274.411 14.6992 274.401 14.7246 274.387C15.2537 274.231 15.6399 273.742 15.6399 273.162V246.245C15.6399 245.601 15.1615 245.067 14.5402 244.981L9.93157 243.207V230.988L14.5402 229.215C15.1615 229.129 15.6399 228.596 15.6399 227.951V201.033C15.6399 200.453 15.2537 199.964 14.7246 199.808C14.6993 199.795 14.6727 199.784 14.6461 199.774L14.6457 199.773L2.58388 195.134V190.277C2.58388 189.576 2.0186 189.007 1.31875 189C2.0186 188.993 2.58388 188.424 2.58388 187.723V180.808L14.6457 176.169C14.6583 176.164 14.6704 176.159 14.6821 176.154C14.6966 176.148 14.7106 176.141 14.7246 176.134C15.2537 175.978 15.6399 175.489 15.6399 174.909V147.991C15.6399 147.347 15.1615 146.814 14.5402 146.727L9.93157 144.954V132.735L14.5402 130.962C15.1615 130.876 15.6399 130.343 15.6399 129.698V102.78C15.6399 102.2 15.2537 101.711 14.7246 101.555C14.6992 101.543 14.6725 101.531 14.6457 101.52L2.58388 96.8811V90.0611L14.6457 85.422C14.6738 85.4113 14.6992 85.4006 14.7246 85.3873C15.2537 85.2309 15.6399 84.7419 15.6399 84.162V57.2446C15.6399 56.6006 15.1615 56.0675 14.5402 55.9806L9.93157 54.2075V41.9879L14.5402 40.2148C15.1615 40.1293 15.6399 39.5962 15.6399 38.9508V12.0334C15.6399 11.4535 15.2537 10.9645 14.7246 10.8082C14.6992 10.7948 14.6725 10.7841 14.6457 10.7734L2.58388 6.13437V1.27742C2.58388 0.571909 2.01198 0 1.30647 0C0.600965 0 0.0290717 0.571909 0.0290717 1.27742V25.5465C-0.0110148 25.6881 -0.00834329 25.8351 0.0290717 25.9701V70.2263ZM2.58369 68.899L7.38338 67.0529C7.37803 67.0074 7.3767 66.962 7.3767 66.9166V61.6519L2.58369 59.8079V68.899ZM9.92891 55.9117L13.089 57.1263L13.0877 57.1278C13.0837 57.1679 13.0823 57.208 13.0823 57.2481V62.1465L9.92891 60.9332V55.9117ZM2.58251 53.0843L7.37551 54.9283V59.9498L2.58251 58.1058V53.0843ZM7.37551 53.226L2.58251 51.3821V44.8149L7.37551 42.9709V53.226ZM13.0931 84.3174L2.58273 88.3591V83.3393L13.0837 79.2999V84.1637C13.0837 84.2158 13.0864 84.2666 13.0931 84.3174ZM2.58251 27.2979L7.38338 29.1445L7.38219 29.1444C7.37818 29.1885 7.37551 29.2339 7.37551 29.2807V34.5454L2.58251 36.3893V27.2979ZM8.91343 28.0301L2.58251 25.5956L2.58268 14.5601L13.0837 18.5995V32.3502L9.93028 33.5634V29.2808C9.93028 28.6648 9.49466 28.1504 8.91343 28.0301ZM9.93004 40.2872V35.2657L9.93137 35.2673L13.0848 34.054V38.9524C13.0848 38.9938 13.0861 39.0326 13.0901 39.0726L9.93004 40.2872ZM7.3766 36.2478V41.2693L2.58361 43.1132V38.0917L7.3766 36.2478ZM2.58361 7.83943L13.0942 11.8812L13.094 11.8829C13.0873 11.9323 13.0846 11.9844 13.0846 12.0365V16.9003L2.58361 12.8609V7.83943ZM2.58394 118.045L7.38481 119.891L7.38363 119.891C7.37962 119.935 7.37695 119.981 7.37695 120.027V125.292L2.58394 127.136V118.045ZM8.91486 118.777L2.58394 116.342L2.58412 105.307L13.0851 109.346V123.097L9.93171 124.31V120.028C9.93171 119.412 9.4961 118.897 8.91486 118.777ZM2.58394 135.562L7.37695 133.718V143.973L2.58394 142.129V135.562ZM7.37695 132.016L2.58394 133.86V128.838L7.37695 126.994V132.016ZM9.9328 131.033L13.0916 129.819C13.0876 129.779 13.0862 129.74 13.0862 129.699V124.801L9.9328 126.014V131.033ZM2.58364 98.586L13.0942 102.628L13.094 102.629C13.0873 102.679 13.0847 102.731 13.0847 102.783V107.647L2.58364 103.607V98.586ZM2.58364 161.349L8.91455 158.914L8.91439 158.913C9.49432 158.793 9.93124 158.279 9.93124 157.663V153.38L13.0847 154.593V168.344L2.58364 172.383V161.349ZM2.58482 159.646L7.3845 157.8C7.37916 157.755 7.37782 157.709 7.37782 157.664V152.399L2.58482 150.555V159.646ZM7.37664 145.675V150.697L2.58364 148.853V143.831L7.37664 145.675ZM9.93008 146.661V151.68L13.0835 152.894V147.995C13.0835 147.955 13.0848 147.915 13.0888 147.875L9.93008 146.661ZM13.0931 175.066L2.58276 179.108V174.088L13.0838 170.049V174.913C13.0838 174.965 13.0865 175.015 13.0931 175.066ZM37.394 68.9014L32.5932 67.0548L32.5944 67.0549C32.5984 67.0108 32.601 66.9654 32.601 66.9186V61.6539L37.394 59.81V68.9014ZM31.0631 68.1691L37.394 70.6037L37.3939 81.6392L26.8929 77.5997V63.8491L30.0463 62.6358V66.9185C30.0463 67.5344 30.4832 68.0489 31.0631 68.1691ZM26.8929 57.2483C26.8929 57.2069 26.8916 57.1682 26.8876 57.1281L26.8862 57.1265L30.0463 55.9119V60.9334L26.8929 62.1467V57.2483ZM37.394 53.086V58.1075L32.601 59.9514V54.9299L37.394 53.086ZM37.394 44.8166V51.3839L32.601 53.2277V42.9727L37.394 44.8166ZM37.394 88.3593V83.3395L26.893 79.3001V84.1639C26.893 84.216 26.8903 84.2681 26.8837 84.3175L37.394 88.3593ZM37.394 25.5967L31.0631 28.0312L31.0633 28.0324C30.4834 28.1526 30.0464 28.6671 30.0464 29.283V33.5657L26.893 32.3524V18.6018L37.394 14.5624V25.5967ZM37.3928 27.2994L32.5932 29.1456C32.5985 29.191 32.5999 29.2364 32.5999 29.2819V34.5466L37.3928 36.3905V27.2994ZM32.601 41.2702V36.2487L37.394 38.0927V43.1141L32.601 41.2702ZM30.0476 40.2847V35.2653L26.8942 34.052V38.9504C26.8942 38.9905 26.8928 39.0306 26.8888 39.0706L30.0476 40.2847ZM37.3951 7.83726V12.8588L37.3949 12.8571L26.8939 16.8965V12.0327C26.8939 11.9806 26.8912 11.9299 26.8845 11.8791L37.3951 7.83726ZM37.3951 116.341L31.0642 118.775L31.0644 118.777C30.4845 118.897 30.0475 119.411 30.0475 120.027V124.31L26.8941 123.097V109.346L37.3951 105.307V116.341ZM37.3939 118.044L32.5943 119.89C32.5996 119.935 32.601 119.981 32.601 120.026V125.291L37.3939 127.135V118.044ZM30.0476 131.03V126.011L26.8942 124.798V129.696C26.8942 129.736 26.8928 129.776 26.8888 129.816L30.0476 131.03ZM32.601 132.016V126.994L37.394 128.838V133.86L32.601 132.016ZM32.601 143.973V133.718L37.394 135.562V142.129L32.601 143.973ZM37.394 98.5842V103.606L37.3938 103.604L26.8928 107.643V102.78C26.8928 102.728 26.8901 102.677 26.8834 102.626L37.394 98.5842ZM37.394 159.645L32.5932 157.799L32.5944 157.799C32.5984 157.755 32.601 157.709 32.601 157.663V152.398L37.394 150.554V159.645ZM31.0631 158.913L37.394 161.348L37.3939 172.383L26.8929 168.344V154.593L30.0463 153.38V157.663C30.0463 158.279 30.4819 158.793 31.0631 158.913ZM30.0465 146.656V151.678L30.0452 151.676L26.8918 152.889V147.991C26.8918 147.95 26.8904 147.911 26.8864 147.871L30.0465 146.656ZM32.5999 150.696V145.674L37.3929 143.83V148.852L32.5999 150.696ZM37.3929 179.104V174.084L26.8919 170.044V174.908C26.8919 174.96 26.8893 175.012 26.8826 175.062L37.3929 179.104ZM38.6718 189.001C37.9663 189.001 37.3944 189.573 37.3944 190.279V195.133L25.3326 199.772C25.3045 199.783 25.2791 199.794 25.2537 199.807C24.7246 199.964 24.3384 200.453 24.3384 201.032V227.95C24.3384 228.594 24.8168 229.127 25.4381 229.214L30.0467 230.987V243.206L25.4381 244.98C24.8168 245.065 24.3384 245.598 24.3384 246.244V273.161C24.3384 273.741 24.7246 274.23 25.2537 274.386C25.2791 274.398 25.3058 274.41 25.3326 274.421L37.3944 279.06V285.88L25.3326 290.519C25.3045 290.53 25.2791 290.541 25.2537 290.554C24.7246 290.71 24.3384 291.199 24.3384 291.779V318.697C24.3384 319.341 24.8168 319.874 25.4381 319.961L30.0467 321.734V333.953L25.4381 335.726C24.8168 335.812 24.3384 336.345 24.3384 336.99V363.908C24.3384 364.488 24.7246 364.977 25.2537 365.133L25.2726 365.142L25.2947 365.152C25.3073 365.157 25.3199 365.163 25.3326 365.168L37.3944 369.807V376.722C37.3944 377.427 37.9663 377.999 38.6718 377.999C39.3773 377.999 39.9492 377.427 39.9492 376.722V350.396C39.9893 350.254 39.9866 350.107 39.9492 349.973V305.716C39.9866 305.581 39.9893 305.436 39.9492 305.293V259.651C39.9893 259.509 39.9866 259.362 39.9492 259.228V214.971C39.9866 214.836 39.9893 214.691 39.9492 214.548V190.279C39.9492 189.573 39.3773 189.001 38.6718 189.001ZM2.58258 259.6L8.91349 257.166L8.91332 257.165C9.49326 257.044 9.93018 256.53 9.93018 255.914V251.631L13.0836 252.845V266.595L2.58258 270.635V259.6ZM7.38338 256.053L2.58369 257.899V248.808L7.3767 250.652V255.917C7.3767 255.962 7.37803 256.007 7.38338 256.053ZM9.92891 244.912L13.089 246.126L13.0877 246.128C13.0837 246.168 13.0823 246.208 13.0823 246.248V251.146L9.92891 249.933V244.912ZM2.58251 242.084L7.37551 243.928V248.95L2.58251 247.106V242.084ZM7.37551 242.226L2.58251 240.382V233.815L7.37551 231.971V242.226ZM13.0931 273.317L2.58273 277.359V272.339L13.0837 268.3V273.164C13.0837 273.216 13.0864 273.267 13.0931 273.317ZM2.58251 216.298L7.38338 218.144L7.38219 218.144C7.37818 218.188 7.37551 218.234 7.37551 218.281V223.545L2.58251 225.389V216.298ZM8.91343 217.03L2.58251 214.596L2.58268 203.56L13.0837 207.599V221.35L9.93028 222.563V218.281C9.93028 217.665 9.49466 217.15 8.91343 217.03ZM9.93004 229.287V224.266L9.93137 224.267L13.0848 223.054V227.952C13.0848 227.994 13.0861 228.032 13.0901 228.073L9.93004 229.287ZM7.3766 225.248V230.269L2.58361 232.113V227.092L7.3766 225.248ZM2.58361 196.839L13.0942 200.881L13.094 200.883C13.0873 200.932 13.0846 200.984 13.0846 201.036V205.9L2.58361 201.861V196.839ZM2.58394 307.045L7.38363 308.891C7.37962 308.935 7.37695 308.981 7.37695 309.027V314.292L2.58394 316.136V307.045ZM8.91486 307.777L2.58394 305.342L2.58412 294.307L13.0851 298.346V312.097L9.93171 313.31V309.028C9.93171 308.412 9.4961 307.897 8.91486 307.777ZM2.58394 324.562L7.37695 322.718V332.973L2.58394 331.129V324.562ZM7.37695 321.016L2.58394 322.86V317.838L7.37695 315.994V321.016ZM9.9328 320.033L13.0916 318.819C13.0876 318.779 13.0862 318.74 13.0862 318.699V313.801L9.9328 315.014V320.033ZM2.58364 287.586L13.0942 291.628L13.094 291.629C13.0873 291.679 13.0847 291.731 13.0847 291.783V296.647L2.58364 292.607V287.586ZM2.58364 350.349L8.91455 347.914L8.91439 347.913C9.49432 347.793 9.93124 347.279 9.93124 346.663V342.38L13.0847 343.593V357.344L2.58364 361.383V350.349ZM7.3845 346.8L2.58482 348.646V339.555L7.37782 341.399V346.664C7.37782 346.709 7.37916 346.755 7.3845 346.8ZM7.37664 334.675V339.697L2.58364 337.853V332.831L7.37664 334.675ZM9.93008 335.661V340.68L13.0835 341.894V336.995C13.0835 336.955 13.0848 336.915 13.0888 336.875L9.93008 335.661ZM13.0931 364.066L2.58276 368.108V363.088L13.0838 359.049V363.912C13.0838 363.965 13.0865 364.015 13.0931 364.066ZM37.394 257.901L32.5944 256.055C32.5984 256.011 32.601 255.965 32.601 255.919V250.654L37.394 248.81V257.901ZM31.0631 257.169L37.394 259.604L37.3939 270.639L26.8929 266.6V252.849L30.0463 251.636V255.918C30.0463 256.534 30.4832 257.049 31.0631 257.169ZM26.8929 246.248C26.8929 246.207 26.8916 246.168 26.8876 246.128L26.8862 246.126L30.0463 244.912V249.933L26.8929 251.147V246.248ZM37.394 242.086V247.107L32.601 248.951V243.93L37.394 242.086ZM37.394 233.817V240.384L32.601 242.228V231.973L37.394 233.817ZM37.394 272.339V277.359L26.8837 273.317C26.8903 273.268 26.893 273.216 26.893 273.164V268.3L37.394 272.339ZM37.394 214.597L31.0631 217.031L31.0633 217.032C30.4834 217.153 30.0464 217.667 30.0464 218.283V222.566L26.893 221.352V207.602L37.394 203.562V214.597ZM37.3928 216.299L32.5932 218.146C32.5985 218.191 32.5999 218.236 32.5999 218.282V223.546L37.3928 225.39V216.299ZM32.601 230.27V225.249L37.394 227.093V232.114L32.601 230.27ZM30.0476 229.285V224.265L26.8942 223.052V227.95C26.8942 227.99 26.8928 228.03 26.8888 228.071L30.0476 229.285ZM37.3951 196.837V201.859L37.3949 201.857L26.8939 205.896V201.033C26.8939 200.981 26.8912 200.93 26.8845 200.879L37.3951 196.837ZM37.3951 305.341L31.0642 307.775L31.0644 307.777C30.4845 307.897 30.0475 308.411 30.0475 309.027V313.31L26.8941 312.097V298.346L37.3951 294.306V305.341ZM32.5943 308.89L37.3939 307.043V316.135L32.601 314.291V309.026C32.601 308.981 32.5996 308.935 32.5943 308.89ZM30.0476 320.03V315.011L26.8942 313.798V318.696C26.8942 318.736 26.8928 318.776 26.8888 318.816L30.0476 320.03ZM32.601 321.016V315.994L37.394 317.838V322.86L32.601 321.016ZM32.601 332.973V322.718L37.394 324.562V331.129L32.601 332.973ZM37.394 287.584V292.606L37.3938 292.604L26.8928 296.643V291.78C26.8928 291.728 26.8901 291.677 26.8834 291.626L37.394 287.584ZM37.394 348.645L32.5944 346.799C32.5984 346.755 32.601 346.709 32.601 346.663V341.398L37.394 339.554V348.645ZM31.0631 347.913L37.394 350.348L37.3939 361.383L26.8929 357.344V343.593L30.0463 342.38V346.663C30.0463 347.278 30.4819 347.793 31.0631 347.913ZM30.0465 335.656V340.678L30.0452 340.676L26.8918 341.889V336.991C26.8918 336.949 26.8904 336.911 26.8864 336.871L30.0465 335.656ZM32.5999 339.696V334.674L37.3929 332.83V337.852L32.5999 339.696ZM37.3929 363.084V368.104L26.8826 364.062C26.8893 364.012 26.8919 363.96 26.8919 363.908V359.044L37.3929 363.084ZM38.6718 567.001C37.9663 567.001 37.3944 567.573 37.3944 568.279V573.133L25.3326 577.772C25.3045 577.783 25.2791 577.794 25.2537 577.807C24.7246 577.964 24.3384 578.453 24.3384 579.032V605.95C24.3384 606.594 24.8168 607.127 25.4381 607.214L30.0467 608.987V621.206L25.4381 622.98C24.8168 623.065 24.3384 623.598 24.3384 624.244V651.161C24.3384 651.741 24.7246 652.23 25.2537 652.386C25.2791 652.398 25.3058 652.41 25.3326 652.421L37.3944 657.06V663.88L25.3326 668.519L25.315 668.526L25.2986 668.533C25.29 668.536 25.2815 668.54 25.2731 668.544C25.2666 668.547 25.2602 668.551 25.2537 668.554C24.7246 668.71 24.3384 669.199 24.3384 669.779V696.697C24.3384 697.341 24.8168 697.874 25.4381 697.961L30.0467 699.734V711.953L25.4381 713.726C24.8168 713.812 24.3384 714.345 24.3384 714.99V741.908C24.3384 742.488 24.7246 742.977 25.2537 743.133C25.2791 743.145 25.3058 743.157 25.3326 743.168L37.3944 747.807V754.722C37.3944 755.427 37.9663 755.999 38.6718 755.999C39.3773 755.999 39.9492 755.427 39.9492 754.722V728.396C39.9893 728.254 39.9866 728.107 39.9492 727.973V683.716C39.9866 683.581 39.9893 683.436 39.9492 683.293V637.651C39.9893 637.509 39.9866 637.362 39.9492 637.228V592.971C39.9866 592.836 39.9893 592.691 39.9492 592.548V568.279C39.9492 567.573 39.3773 567.001 38.6718 567.001ZM2.58258 637.6L8.91349 635.166L8.91332 635.165C9.49326 635.044 9.93018 634.53 9.93018 633.914V629.631L13.0836 630.845V644.595L2.58258 648.635V637.6ZM7.38338 634.053L2.58369 635.899V626.808L7.3767 628.652V633.917C7.3767 633.962 7.37803 634.007 7.38338 634.053ZM9.92891 622.912L13.089 624.126L13.0877 624.128C13.0837 624.168 13.0823 624.208 13.0823 624.248V629.146L9.92891 627.933V622.912ZM2.58251 620.084L7.37551 621.928V626.95L2.58251 625.106V620.084ZM7.37551 620.226L2.58251 618.382V611.815L7.37551 609.971V620.226ZM13.0931 651.317L2.58273 655.359V650.339L13.0837 646.3V651.164C13.0837 651.216 13.0864 651.267 13.0931 651.317ZM2.58251 594.298L7.38219 596.144C7.37818 596.188 7.37551 596.234 7.37551 596.281V601.545L2.58251 603.389V594.298ZM8.91343 595.03L2.58251 592.596L2.58268 581.56L13.0837 585.599V599.35L9.93028 600.563V596.281C9.93028 595.665 9.49466 595.15 8.91343 595.03ZM9.93004 607.287V602.266L9.93137 602.267L13.0848 601.054V605.952C13.0848 605.994 13.0861 606.032 13.0901 606.073L9.93004 607.287ZM7.3766 603.248V608.269L2.58361 610.113V605.092L7.3766 603.248ZM2.58361 574.839L13.0942 578.881L13.094 578.883C13.0873 578.932 13.0846 578.984 13.0846 579.037V583.9L2.58361 579.861V574.839ZM2.58394 685.045L7.38363 686.891C7.37962 686.935 7.37695 686.981 7.37695 687.027V692.292L2.58394 694.136V685.045ZM8.91486 685.777L2.58394 683.342L2.58412 672.307L13.0851 676.346V690.097L9.93171 691.31V687.028C9.93171 686.412 9.4961 685.897 8.91486 685.777ZM2.58394 702.562L7.37695 700.718V710.973L2.58394 709.129V702.562ZM7.37695 699.016L2.58394 700.86V695.838L7.37695 693.994V699.016ZM9.9328 698.033L13.0916 696.819C13.0876 696.779 13.0862 696.74 13.0862 696.699V691.801L9.9328 693.014V698.033ZM2.58364 665.586L13.0942 669.628L13.094 669.629C13.0873 669.679 13.0847 669.731 13.0847 669.783V674.647L2.58364 670.607V665.586ZM2.58364 728.349L8.91455 725.914L8.91439 725.913C9.49432 725.793 9.93124 725.279 9.93124 724.663V720.38L13.0847 721.593V735.344L2.58364 739.383V728.349ZM7.3845 724.8L2.58482 726.646V717.555L7.37782 719.399V724.664C7.37782 724.709 7.37916 724.755 7.3845 724.8ZM7.37664 712.675V717.697L2.58364 715.853V710.831L7.37664 712.675ZM9.93008 713.661V718.68L13.0835 719.894V714.995C13.0835 714.955 13.0848 714.915 13.0888 714.875L9.93008 713.661ZM13.0931 742.066L2.58276 746.108V741.088L13.0838 737.049V741.912C13.0838 741.965 13.0865 742.015 13.0931 742.066ZM37.394 635.901L32.5944 634.055C32.5984 634.011 32.601 633.965 32.601 633.919V628.654L37.394 626.81V635.901ZM31.0631 635.169L37.394 637.604L37.3939 648.639L26.8929 644.6V630.849L30.0463 629.636V633.918C30.0463 634.534 30.4832 635.049 31.0631 635.169ZM26.8929 624.248C26.8929 624.235 26.8928 624.223 26.8925 624.211C26.8922 624.197 26.8916 624.184 26.8909 624.17C26.8901 624.156 26.889 624.142 26.8876 624.128L26.8862 624.126L30.0463 622.912V627.933L26.8929 629.147V624.248ZM37.394 620.086V625.107L32.601 626.951V621.93L37.394 620.086ZM37.394 611.817V618.384L32.601 620.228V609.973L37.394 611.817ZM37.394 650.339L37.3943 655.359L26.8837 651.317C26.8903 651.268 26.893 651.216 26.893 651.164V646.3L37.394 650.339ZM37.394 592.597L31.0631 595.031L31.0633 595.032C30.4834 595.153 30.0464 595.667 30.0464 596.283V600.566L26.893 599.352V585.602L37.394 581.562V592.597ZM32.5932 596.146L37.3928 594.299V603.39L32.5999 601.547V596.282C32.5999 596.236 32.5985 596.191 32.5932 596.146ZM32.601 608.27V603.249L37.394 605.093V610.114L32.601 608.27ZM30.0476 607.285V602.265L26.8942 601.052V605.95C26.8942 605.99 26.8928 606.031 26.8888 606.071L30.0476 607.285ZM37.3951 574.837V579.859L37.3949 579.857L26.8939 583.896V579.033C26.8939 578.981 26.8912 578.93 26.8845 578.879L37.3951 574.837ZM37.3951 683.341L31.0642 685.775L31.0644 685.777C30.4845 685.897 30.0475 686.411 30.0475 687.027V691.31L26.8941 690.097V676.346L37.3951 672.307V683.341ZM32.5943 686.89L37.3939 685.043V694.135L32.601 692.291V687.026C32.601 686.981 32.5996 686.935 32.5943 686.89ZM30.0476 698.03V693.011L26.8942 691.798V696.696C26.8942 696.718 26.8938 696.74 26.8928 696.762C26.8923 696.772 26.8917 696.782 26.891 696.792C26.8904 696.8 26.8897 696.808 26.8888 696.816L30.0476 698.03ZM32.601 699.016V693.994L37.394 695.838V700.86L32.601 699.016ZM32.601 710.973V700.718L37.394 702.562V709.129L32.601 710.973ZM37.394 665.584V670.606L37.3938 670.604L26.8928 674.643V669.78C26.8928 669.727 26.8901 669.677 26.8834 669.626L37.394 665.584ZM37.394 726.645L32.5944 724.799C32.5961 724.78 32.5976 724.76 32.5988 724.74C32.6002 724.715 32.601 724.689 32.601 724.663V719.398L37.394 717.554V726.645ZM31.0631 725.913L37.394 728.348L37.3939 739.383L26.8929 735.344V721.593L30.0463 720.38V724.663C30.0463 725.278 30.4819 725.793 31.0631 725.913ZM30.0465 713.656V718.678L30.0452 718.676L26.8918 719.889V714.991C26.8918 714.979 26.8916 714.966 26.8914 714.955L26.8908 714.935C26.8904 714.924 26.8898 714.913 26.8891 714.903C26.8884 714.892 26.8875 714.881 26.8864 714.871L30.0465 713.656ZM32.5999 717.696V712.674L37.3929 710.83V715.852L32.5999 717.696ZM37.3929 741.084L37.3932 746.104L26.8826 742.062C26.8893 742.012 26.8919 741.96 26.8919 741.908V737.044L37.3929 741.084ZM37.3944 946.279C37.3944 945.573 37.9663 945.001 38.6718 945.001C39.3773 945.001 39.9492 945.573 39.9492 946.279V970.548C39.9893 970.691 39.9866 970.836 39.9492 970.971V1015.23C39.9866 1015.36 39.9893 1015.51 39.9492 1015.65V1061.29C39.9893 1061.44 39.9866 1061.58 39.9492 1061.72V1105.97C39.9866 1106.11 39.9893 1106.25 39.9492 1106.4V1132.72C39.9492 1133.43 39.3773 1134 38.6718 1134C37.9663 1134 37.3944 1133.43 37.3944 1132.72V1125.81L25.3326 1121.17C25.3058 1121.16 25.2791 1121.15 25.2537 1121.13C24.7246 1120.98 24.3384 1120.49 24.3384 1119.91V1092.99C24.3384 1092.35 24.8168 1091.81 25.4381 1091.73L30.0467 1089.95V1077.73L25.4381 1075.96C24.8168 1075.87 24.3384 1075.34 24.3384 1074.7V1047.78C24.3384 1047.2 24.7246 1046.71 25.2537 1046.55C25.2791 1046.54 25.3045 1046.53 25.3326 1046.52L37.3944 1041.88V1035.06L25.3326 1030.42C25.3236 1030.42 25.3147 1030.41 25.3059 1030.41L25.2825 1030.4C25.2728 1030.4 25.2632 1030.39 25.2537 1030.39C24.7246 1030.23 24.3384 1029.74 24.3384 1029.16V1002.24C24.3384 1001.6 24.8168 1001.07 25.4381 1000.98L30.0467 999.206V986.987L25.4381 985.214C24.8168 985.127 24.3384 984.594 24.3384 983.95V957.032C24.3384 956.453 24.7246 955.964 25.2537 955.807C25.2791 955.794 25.3045 955.783 25.3326 955.772L37.3944 951.133V946.279ZM8.91349 1013.17L2.58258 1015.6V1026.63L13.0836 1022.6V1008.84L9.93018 1007.63V1011.91C9.93018 1012.53 9.49326 1013.04 8.91332 1013.16L8.91349 1013.17ZM2.58369 1013.9L7.38338 1012.05C7.37803 1012.01 7.3767 1011.96 7.3767 1011.92V1006.65L2.58369 1004.81V1013.9ZM13.089 1002.13L9.92891 1000.91V1005.93L13.0823 1007.15V1002.25C13.0823 1002.21 13.0837 1002.17 13.0877 1002.13L13.089 1002.13ZM7.37551 999.928L2.58251 998.084V1003.11L7.37551 1004.95V999.928ZM2.58251 996.382L7.37551 998.226V987.971L2.58251 989.815V996.382ZM2.58273 1033.36L13.0931 1029.32C13.0864 1029.27 13.0837 1029.22 13.0837 1029.16V1024.3L2.58273 1028.34V1033.36ZM7.38219 974.144L2.58251 972.298V981.389L7.37551 979.545V974.281C7.37551 974.234 7.37818 974.188 7.38219 974.144ZM2.58251 970.596L8.91343 973.03C9.49466 973.15 9.93028 973.665 9.93028 974.281V978.563L13.0837 977.35V963.599L2.58268 959.56L2.58251 970.596ZM9.93004 980.266V985.287L13.0901 984.073C13.0861 984.032 13.0848 983.994 13.0848 983.952V979.054L9.93137 980.267L9.93004 980.266ZM7.3766 986.269V981.248L2.58361 983.092V988.113L7.3766 986.269ZM13.0942 956.881L2.58361 952.839V957.861L13.0846 961.9V957.037C13.0846 956.984 13.0873 956.932 13.094 956.883L13.0942 956.881ZM7.38363 1064.89L2.58394 1063.04V1072.14L7.37695 1070.29V1065.03C7.37695 1064.98 7.37962 1064.94 7.38363 1064.89ZM2.58394 1061.34L8.91486 1063.78C9.4961 1063.9 9.93171 1064.41 9.93171 1065.03V1069.31L13.0851 1068.1V1054.35L2.58412 1050.31L2.58394 1061.34ZM7.37695 1078.72L2.58394 1080.56V1087.13L7.37695 1088.97V1078.72ZM2.58394 1078.86L7.37695 1077.02V1071.99L2.58394 1073.84V1078.86ZM13.0916 1074.82L9.9328 1076.03V1071.01L13.0862 1069.8V1074.7C13.0862 1074.74 13.0876 1074.78 13.0916 1074.82ZM13.0942 1047.63L2.58364 1043.59V1048.61L13.0847 1052.65V1047.78C13.0847 1047.73 13.0873 1047.68 13.094 1047.63L13.0942 1047.63ZM8.91455 1103.91L2.58364 1106.35V1117.38L13.0847 1113.34V1099.59L9.93124 1098.38V1102.66C9.93124 1103.28 9.49432 1103.79 8.91439 1103.91L8.91455 1103.91ZM2.58482 1104.65L7.3845 1102.8C7.37916 1102.75 7.37782 1102.71 7.37782 1102.66V1097.4L2.58482 1095.56V1104.65ZM7.37664 1095.7V1090.68L2.58364 1088.83V1093.85L7.37664 1095.7ZM9.93008 1096.68V1091.66L13.0888 1092.87C13.0848 1092.92 13.0835 1092.96 13.0835 1093V1097.89L9.93008 1096.68ZM2.58276 1124.11L13.0931 1120.07C13.0865 1120.02 13.0838 1119.96 13.0838 1119.91V1115.05L2.58276 1119.09V1124.11ZM32.5944 1012.05L37.394 1013.9V1004.81L32.601 1006.65V1011.92C32.601 1011.97 32.5984 1012.01 32.5944 1012.05ZM37.394 1015.6L31.0631 1013.17C30.4832 1013.05 30.0463 1012.53 30.0463 1011.92V1007.64L26.8929 1008.85V1022.6L37.3939 1026.64L37.394 1015.6ZM26.8876 1002.13C26.8916 1002.17 26.8929 1002.21 26.8929 1002.25V1007.15L30.0463 1005.93V1000.91L26.8862 1002.13L26.8876 1002.13ZM37.394 1003.11V998.086L32.601 999.93V1004.95L37.394 1003.11ZM37.394 996.384V989.817L32.601 987.973V998.228L37.394 996.384ZM37.3943 1033.36L37.394 1028.34L26.893 1024.3V1029.16C26.893 1029.22 26.8903 1029.27 26.8837 1029.32L37.3943 1033.36ZM31.0631 973.031L37.394 970.597V959.562L26.893 963.602V977.352L30.0464 978.566V974.283C30.0464 973.667 30.4834 973.153 31.0633 973.032L31.0631 973.031ZM37.3928 972.299L32.5932 974.146C32.5985 974.191 32.5999 974.236 32.5999 974.282V979.547L37.3928 981.39V972.299ZM32.601 981.249V986.27L37.394 988.114V983.093L32.601 981.249ZM30.0476 980.265V985.285L26.8888 984.071C26.8928 984.031 26.8942 983.99 26.8942 983.95V979.052L30.0476 980.265ZM37.3951 957.859V952.837L26.8845 956.879C26.8867 956.895 26.8884 956.912 26.8898 956.928C26.8906 956.938 26.8913 956.948 26.8919 956.958C26.8933 956.983 26.8939 957.008 26.8939 957.033V961.896L37.3949 957.857L37.3951 957.859ZM31.0642 1063.78L37.3951 1061.34V1050.31L26.8941 1054.35V1068.1L30.0475 1069.31V1065.03C30.0475 1064.41 30.4845 1063.9 31.0644 1063.78L31.0642 1063.78ZM37.3939 1063.04L32.5943 1064.89C32.5984 1064.92 32.6001 1064.96 32.6007 1064.99L32.601 1065.03V1070.29L37.3939 1072.13V1063.04ZM30.0476 1071.01V1076.03L26.8888 1074.82C26.8928 1074.78 26.8942 1074.74 26.8942 1074.7V1069.8L30.0476 1071.01ZM32.601 1071.99V1077.02L37.394 1078.86V1073.84L32.601 1071.99ZM32.601 1078.72V1088.97L37.394 1087.13V1080.56L32.601 1078.72ZM37.394 1048.61V1043.58L26.8834 1047.63C26.8872 1047.65 26.8897 1047.68 26.8912 1047.71C26.8923 1047.73 26.8928 1047.76 26.8928 1047.78V1052.64L37.3938 1048.6L37.394 1048.61ZM32.5944 1102.8L37.394 1104.65V1095.55L32.601 1097.4V1102.66C32.601 1102.71 32.5984 1102.75 32.5944 1102.8ZM37.394 1106.35L31.0631 1103.91C30.4819 1103.79 30.0463 1103.28 30.0463 1102.66V1098.38L26.8929 1099.59V1113.34L37.3939 1117.38L37.394 1106.35ZM30.0465 1096.68V1091.66L26.8864 1092.87C26.8904 1092.91 26.8918 1092.95 26.8918 1092.99V1097.89L30.0452 1096.68L30.0465 1096.68ZM32.5999 1090.67V1095.7L37.3929 1093.85V1088.83L32.5999 1090.67ZM37.3932 1124.1L37.3929 1119.08L26.8919 1115.04V1119.91C26.8919 1119.96 26.8893 1120.01 26.8826 1120.06L37.3932 1124.1ZM37.3944 379.279C37.3944 378.573 37.9663 378.001 38.6718 378.001C39.3773 378.001 39.9492 378.573 39.9492 379.279V403.548C39.9893 403.691 39.9866 403.836 39.9492 403.971V448.228C39.9866 448.363 39.9893 448.51 39.9492 448.651V494.293C39.9893 494.436 39.9866 494.581 39.9492 494.716V538.973C39.9866 539.108 39.9893 539.255 39.9492 539.396V565.722C39.9492 566.427 39.3773 566.999 38.6718 566.999C37.9663 566.999 37.3944 566.427 37.3944 565.722V558.807L25.3326 554.168C25.3191 554.162 25.3056 554.157 25.2923 554.151C25.2792 554.145 25.2663 554.139 25.2537 554.133C24.7246 553.977 24.3384 553.488 24.3384 552.908V525.99C24.3384 525.345 24.8168 524.812 25.4381 524.726L30.0467 522.953V510.734L25.4381 508.961C24.8168 508.874 24.3384 508.341 24.3384 507.697V480.779C24.3384 480.199 24.7246 479.71 25.2537 479.554C25.2791 479.541 25.3045 479.53 25.3326 479.519L37.3944 474.88V468.06L25.3326 463.421C25.3058 463.41 25.2791 463.398 25.2537 463.386C24.7246 463.23 24.3384 462.741 24.3384 462.161V435.244C24.3384 434.598 24.8168 434.065 25.4381 433.98L30.0467 432.207V419.987L25.4381 418.214C24.8168 418.127 24.3384 417.594 24.3384 416.95V390.033C24.3384 389.453 24.7246 388.964 25.2537 388.807C25.2616 388.803 25.2694 388.799 25.2773 388.796C25.283 388.793 25.2887 388.79 25.2945 388.788C25.3068 388.783 25.3194 388.778 25.3326 388.772L37.3944 384.133V379.279ZM8.91349 446.166L2.58258 448.6V459.635L13.0836 455.595V441.845L9.93018 440.631V444.914C9.93018 445.53 9.49326 446.044 8.91332 446.165L8.91349 446.166ZM2.58369 446.899L7.38338 445.053C7.37803 445.007 7.3767 444.962 7.3767 444.917V439.652L2.58369 437.808V446.899ZM13.089 435.126L9.92891 433.912V438.933L13.0823 440.146V435.248C13.0823 435.208 13.0837 435.168 13.0877 435.128L13.089 435.126ZM7.37551 432.928L2.58251 431.084V436.106L7.37551 437.95V432.928ZM2.58251 429.382L7.37551 431.226V420.971L2.58251 422.815V429.382ZM2.58273 466.359L13.0931 462.317C13.0864 462.267 13.0837 462.216 13.0837 462.164V457.3L2.58273 461.339V466.359ZM7.38219 407.144L2.58251 405.298V414.389L7.37551 412.545V407.281C7.37551 407.234 7.37818 407.188 7.38219 407.144ZM2.58251 403.596L8.91343 406.03C9.49466 406.15 9.93028 406.665 9.93028 407.281V411.563L13.0837 410.35V396.6L2.58268 392.56L2.58251 403.596ZM9.93004 413.266V418.287L13.0901 417.073C13.0861 417.033 13.0848 416.994 13.0848 416.952V412.054L9.93137 413.267L9.93004 413.266ZM7.3766 419.269V414.248L2.58361 416.092V421.113L7.3766 419.269ZM13.0942 389.881L2.58361 385.839V390.861L13.0846 394.9V390.037C13.0846 389.984 13.0873 389.932 13.094 389.883L13.0942 389.881ZM7.38363 497.891L2.58394 496.045V505.136L7.37695 503.292V498.027C7.37695 497.981 7.37962 497.935 7.38363 497.891ZM2.58394 494.342L8.91486 496.777C9.4961 496.897 9.93171 497.412 9.93171 498.028V502.31L13.0851 501.097V487.346L2.58412 483.307L2.58394 494.342ZM7.37695 511.718L2.58394 513.562V520.129L7.37695 521.973V511.718ZM2.58394 511.86L7.37695 510.016V504.994L2.58394 506.838V511.86ZM13.0916 507.819L9.9328 509.033V504.014L13.0862 502.801V507.699C13.0862 507.74 13.0876 507.779 13.0916 507.819ZM13.0942 480.628L2.58364 476.586V481.607L13.0847 485.647V480.783C13.0847 480.731 13.0873 480.679 13.094 480.629L13.0942 480.628ZM8.91455 536.914L2.58364 539.349V550.383L13.0847 546.344V532.593L9.93124 531.38V535.663C9.93124 536.279 9.49432 536.793 8.91439 536.913L8.91455 536.914ZM2.58482 537.646L7.3845 535.8C7.37916 535.755 7.37782 535.709 7.37782 535.664V530.399L2.58482 528.555V537.646ZM7.37664 528.697V523.675L2.58364 521.831V526.853L7.37664 528.697ZM9.93008 529.68V524.661L13.0888 525.875C13.0848 525.915 13.0835 525.955 13.0835 525.995V530.894L9.93008 529.68ZM2.58276 557.108L13.0931 553.066C13.0865 553.015 13.0838 552.965 13.0838 552.913V548.049L2.58276 552.088V557.108ZM32.5944 445.055L37.394 446.901V437.81L32.601 439.654V444.919C32.601 444.965 32.5984 445.011 32.5944 445.055ZM37.394 448.604L31.0631 446.169C30.4832 446.049 30.0463 445.534 30.0463 444.918V440.636L26.8929 441.849V455.6L37.3939 459.639L37.394 448.604ZM26.8876 435.128C26.8916 435.168 26.8929 435.207 26.8929 435.248V440.147L30.0463 438.933V433.912L26.8862 435.126L26.8876 435.128ZM37.394 436.107V431.086L32.601 432.93V437.951L37.394 436.107ZM37.394 429.384V422.817L32.601 420.973V431.228L37.394 429.384ZM37.394 466.359V461.339L26.893 457.3V462.164C26.893 462.216 26.8903 462.268 26.8837 462.318L37.394 466.359ZM31.0631 406.031L37.394 403.597V392.562L26.893 396.602V410.352L30.0464 411.566V407.283C30.0464 406.667 30.4834 406.153 31.0633 406.032L31.0631 406.031ZM37.3928 405.299L32.5932 407.146C32.5985 407.191 32.5999 407.236 32.5999 407.282V412.547L37.3928 414.391V405.299ZM32.601 414.249V419.27L37.394 421.114V416.093L32.601 414.249ZM30.0476 413.265V418.285L26.8888 417.071C26.8898 417.061 26.8906 417.051 26.8913 417.042C26.8934 417.011 26.8942 416.981 26.8942 416.95V412.052L30.0476 413.265ZM37.3951 390.859V385.837L26.8845 389.879C26.8912 389.93 26.8939 389.981 26.8939 390.033V394.897L37.3949 390.857L37.3951 390.859ZM31.0642 496.775L37.3951 494.341V483.307L26.8941 487.346V501.097L30.0475 502.31V498.027C30.0475 497.411 30.4845 496.897 31.0644 496.777L31.0642 496.775ZM37.3939 496.043L32.5943 497.89C32.5976 497.918 32.5994 497.947 32.6003 497.975C32.6008 497.992 32.601 498.009 32.601 498.026V503.291L37.3939 505.135V496.043ZM30.0476 504.011V509.03L26.8888 507.816C26.8906 507.799 26.8918 507.781 26.8927 507.764C26.8938 507.741 26.8942 507.719 26.8942 507.696V502.798L30.0476 504.011ZM32.601 504.994V510.016L37.394 511.86V506.838L32.601 504.994ZM32.601 511.718V521.973L37.394 520.129V513.562L32.601 511.718ZM37.394 481.606V476.584L26.8834 480.626C26.8901 480.677 26.8928 480.728 26.8928 480.78V485.643L37.3938 481.604L37.394 481.606ZM32.5944 535.799L37.394 537.645V528.554L32.601 530.398V535.663C32.601 535.709 32.5984 535.755 32.5944 535.799ZM37.394 539.348L31.0631 536.913C30.4819 536.793 30.0463 536.279 30.0463 535.663V531.38L26.8929 532.593V546.344L37.3939 550.383L37.394 539.348ZM30.0465 529.678V524.656L26.8864 525.871C26.8904 525.911 26.8918 525.95 26.8918 525.991V530.889L30.0452 529.676L30.0465 529.678ZM32.5999 523.674V528.696L37.3929 526.852V521.83L32.5999 523.674ZM37.3932 557.104L37.3929 552.084L26.8919 548.044V552.908C26.8919 552.938 26.8911 552.967 26.8892 552.996C26.8877 553.018 26.8855 553.04 26.8826 553.062L37.3932 557.104ZM38.6718 756.001C37.9663 756.001 37.3944 756.573 37.3944 757.279V762.133L25.3326 766.772C25.3045 766.783 25.2791 766.794 25.2537 766.807C24.7246 766.964 24.3384 767.453 24.3384 768.032V794.95C24.3384 795.594 24.8168 796.127 25.4381 796.214L30.0467 797.987V810.206L25.4381 811.98C24.8168 812.065 24.3384 812.598 24.3384 813.244V840.161C24.3384 840.741 24.7246 841.23 25.2537 841.386C25.2676 841.393 25.282 841.399 25.2965 841.406C25.3084 841.411 25.3205 841.416 25.3326 841.421L37.3944 846.06V852.88L25.3326 857.519C25.3045 857.53 25.2791 857.541 25.2537 857.554C24.7246 857.71 24.3384 858.199 24.3384 858.779V885.697C24.3384 886.341 24.8168 886.874 25.4381 886.961L30.0467 888.734V900.953L25.4381 902.726C24.8168 902.812 24.3384 903.345 24.3384 903.99V930.908C24.3384 931.488 24.7246 931.977 25.2537 932.133L25.2807 932.146C25.2977 932.153 25.3151 932.161 25.3326 932.168L37.3944 936.807V943.722C37.3944 944.427 37.9663 944.999 38.6718 944.999C39.3773 944.999 39.9492 944.427 39.9492 943.722V917.396C39.9893 917.254 39.9866 917.107 39.9492 916.973V872.716C39.9866 872.581 39.9893 872.436 39.9492 872.293V826.651C39.9893 826.509 39.9866 826.362 39.9492 826.228V781.971C39.9866 781.836 39.9893 781.691 39.9492 781.548V757.279C39.9492 756.573 39.3773 756.001 38.6718 756.001ZM2.58258 826.6L8.91349 824.166L8.91332 824.165C9.49326 824.044 9.93018 823.53 9.93018 822.914V818.631L13.0836 819.845V833.595L2.58258 837.635V826.6ZM7.38338 823.053L2.58369 824.899V815.808L7.3767 817.652V822.917C7.3767 822.962 7.37803 823.007 7.38338 823.053ZM9.92891 811.912L13.089 813.126L13.0877 813.128C13.0837 813.168 13.0823 813.208 13.0823 813.248V818.146L9.92891 816.933V811.912ZM2.58251 809.084L7.37551 810.928V815.95L2.58251 814.106V809.084ZM7.37551 809.226L2.58251 807.382V800.815L7.37551 798.971V809.226ZM13.0931 840.317L2.58273 844.359V839.339L13.0837 835.3V840.164C13.0837 840.2 13.085 840.235 13.088 840.27C13.0893 840.286 13.091 840.302 13.0931 840.317ZM2.58251 783.298L7.38219 785.144C7.37818 785.188 7.37551 785.234 7.37551 785.281V790.545L2.58251 792.389V783.298ZM8.91343 784.03L2.58251 781.596L2.58268 770.56L13.0837 774.599V788.35L9.93028 789.563V785.281C9.93028 784.665 9.49466 784.15 8.91343 784.03ZM9.93004 796.287V791.266L9.93137 791.267L13.0848 790.054V794.952C13.0848 794.994 13.0861 795.032 13.0901 795.073L9.93004 796.287ZM7.3766 792.248V797.269L2.58361 799.113V794.092L7.3766 792.248ZM2.58361 763.839L13.0942 767.881L13.094 767.883C13.0873 767.932 13.0846 767.984 13.0846 768.037V772.9L2.58361 768.861V763.839ZM2.58394 874.045L7.38363 875.891C7.37962 875.935 7.37695 875.981 7.37695 876.027V881.292L2.58394 883.136V874.045ZM8.91486 874.777L2.58394 872.342L2.58412 861.307L13.0851 865.346V879.097L9.93171 880.31V876.028C9.93171 875.412 9.4961 874.897 8.91486 874.777ZM2.58394 891.562L7.37695 889.718V899.973L2.58394 898.129V891.562ZM7.37695 888.016L2.58394 889.86V884.838L7.37695 882.994V888.016ZM9.9328 887.033L13.0916 885.819C13.0876 885.779 13.0862 885.74 13.0862 885.699V880.801L9.9328 882.014V887.033ZM2.58364 854.586L13.0942 858.628L13.094 858.629C13.0873 858.679 13.0847 858.731 13.0847 858.783V863.647L2.58364 859.607V854.586ZM2.58364 917.349L8.91455 914.914L8.91439 914.913C9.49432 914.793 9.93124 914.279 9.93124 913.663V909.38L13.0847 910.593V924.344L2.58364 928.383V917.349ZM7.3845 913.8L2.58482 915.646V906.555L7.37782 908.399V913.664C7.37782 913.709 7.37916 913.755 7.3845 913.8ZM7.37664 901.675V906.697L2.58364 904.853V899.831L7.37664 901.675ZM9.93008 902.661V907.68L13.0835 908.894V903.995C13.0835 903.955 13.0848 903.915 13.0888 903.875L9.93008 902.661ZM13.0931 931.066L2.58276 935.108V930.088L13.0838 926.049V930.912C13.0838 930.965 13.0865 931.015 13.0931 931.066ZM37.394 824.901L32.5944 823.055C32.5984 823.011 32.601 822.965 32.601 822.919V817.654L37.394 815.81V824.901ZM31.0631 824.169L37.394 826.604L37.3939 837.639L26.8929 833.6V819.849L30.0463 818.636V822.918C30.0463 823.534 30.4832 824.049 31.0631 824.169ZM26.8929 813.248C26.8929 813.207 26.8916 813.168 26.8876 813.128L26.8862 813.126L30.0463 811.912V816.933L26.8929 818.147V813.248ZM37.394 809.086V814.107L32.601 815.951V810.93L37.394 809.086ZM37.394 800.817V807.384L32.601 809.228V798.973L37.394 800.817ZM37.394 839.339L37.3943 844.359L26.8837 840.317C26.8903 840.268 26.893 840.216 26.893 840.164V835.3L37.394 839.339ZM37.394 781.597L31.0631 784.031L31.0633 784.032C30.4834 784.153 30.0464 784.667 30.0464 785.283V789.566L26.893 788.352V774.602L37.394 770.562V781.597ZM32.5932 785.146L37.3928 783.299V792.39L32.5999 790.547V785.282C32.5999 785.236 32.5985 785.191 32.5932 785.146ZM32.601 797.27V792.249L37.394 794.093V799.114L32.601 797.27ZM30.0476 796.285V791.265L26.8942 790.052V794.95C26.8942 794.99 26.8928 795.031 26.8888 795.071L30.0476 796.285ZM37.3951 763.837V768.859L37.3949 768.857L26.8939 772.896V768.033C26.8939 767.981 26.8912 767.93 26.8845 767.879L37.3951 763.837ZM37.3951 872.341L31.0642 874.775L31.0644 874.777C30.4845 874.897 30.0475 875.411 30.0475 876.027V880.31L26.8941 879.097V865.346L37.3951 861.307V872.341ZM32.5943 875.89L37.3939 874.043V883.135L32.601 881.291V876.026C32.601 875.981 32.5996 875.935 32.5943 875.89ZM30.0476 887.03V882.011L26.8942 880.798V885.696C26.8942 885.736 26.8928 885.776 26.8888 885.816L30.0476 887.03ZM32.601 888.016V882.994L37.394 884.838V889.86L32.601 888.016ZM32.601 899.973V889.718L37.394 891.562V898.129L32.601 899.973ZM37.394 854.584V859.606L37.3938 859.604L26.8928 863.643V858.78C26.8928 858.727 26.8901 858.677 26.8834 858.626L37.394 854.584ZM37.394 915.645L32.5944 913.799C32.5984 913.755 32.601 913.709 32.601 913.663V908.398L37.394 906.554V915.645ZM31.0631 914.913L37.394 917.348L37.3939 928.383L26.8929 924.344V910.593L30.0463 909.38V913.663C30.0463 914.278 30.4819 914.793 31.0631 914.913ZM30.0465 902.656V907.678L30.0452 907.676L26.8918 908.889V903.991C26.8918 903.95 26.8904 903.911 26.8864 903.871L30.0465 902.656ZM32.5999 906.696V901.674L37.3929 899.83V904.852L32.5999 906.696ZM37.3929 930.084L37.3932 935.104L26.8826 931.062C26.8893 931.012 26.8919 930.96 26.8919 930.908V926.044L37.3929 930.084Z" fill="#C2934D"/>
</svg>
